<mxfile host="app.diagrams.net" modified="2021-11-02T10:42:40.127Z" agent="5.0 (Windows NT 10.0; Win64; x64) AppleWebKit/537.36 (KHTML, like Gecko) Chrome/95.0.4638.69 Safari/537.36" etag="yehNk54d21B0JaAzHkyi" version="15.5.2" type="github">
  <diagram name="Page-1" id="03018318-947c-dd8e-b7a3-06fadd420f32">
    <mxGraphModel dx="2364" dy="1464" grid="1" gridSize="10" guides="1" tooltips="1" connect="1" arrows="1" fold="1" page="1" pageScale="1" pageWidth="1100" pageHeight="850" background="none" math="0" shadow="0">
      <root>
        <mxCell id="0" />
        <mxCell id="1" parent="0" />
        <mxCell id="3glaqCfnxtMFjsHShPuj-1" value="" style="rounded=0;whiteSpace=wrap;html=1;" vertex="1" parent="1">
          <mxGeometry x="200" y="180" width="700" height="1210" as="geometry" />
        </mxCell>
        <mxCell id="3glaqCfnxtMFjsHShPuj-2" value="" style="rounded=0;whiteSpace=wrap;html=1;" vertex="1" parent="1">
          <mxGeometry x="230" y="210" width="640" height="150" as="geometry" />
        </mxCell>
        <mxCell id="3glaqCfnxtMFjsHShPuj-3" value="" style="rounded=0;whiteSpace=wrap;html=1;" vertex="1" parent="1">
          <mxGeometry x="240" y="220" width="620" height="80" as="geometry" />
        </mxCell>
        <mxCell id="3glaqCfnxtMFjsHShPuj-4" value="" style="rounded=0;whiteSpace=wrap;html=1;" vertex="1" parent="1">
          <mxGeometry x="240" y="310" width="620" height="40" as="geometry" />
        </mxCell>
        <mxCell id="3glaqCfnxtMFjsHShPuj-5" value="" style="rounded=0;whiteSpace=wrap;html=1;" vertex="1" parent="1">
          <mxGeometry x="230" y="390" width="640" height="870" as="geometry" />
        </mxCell>
        <mxCell id="3glaqCfnxtMFjsHShPuj-6" value="" style="rounded=0;whiteSpace=wrap;html=1;" vertex="1" parent="1">
          <mxGeometry x="230" y="1290" width="640" height="70" as="geometry" />
        </mxCell>
        <mxCell id="3glaqCfnxtMFjsHShPuj-8" value="" style="whiteSpace=wrap;html=1;aspect=fixed;" vertex="1" parent="1">
          <mxGeometry x="240" y="400" width="190" height="190" as="geometry" />
        </mxCell>
        <mxCell id="3glaqCfnxtMFjsHShPuj-12" value="" style="whiteSpace=wrap;html=1;aspect=fixed;" vertex="1" parent="1">
          <mxGeometry x="455" y="400" width="190" height="190" as="geometry" />
        </mxCell>
        <mxCell id="3glaqCfnxtMFjsHShPuj-13" value="" style="whiteSpace=wrap;html=1;aspect=fixed;" vertex="1" parent="1">
          <mxGeometry x="670" y="400" width="190" height="190" as="geometry" />
        </mxCell>
        <mxCell id="3glaqCfnxtMFjsHShPuj-14" value="" style="whiteSpace=wrap;html=1;aspect=fixed;" vertex="1" parent="1">
          <mxGeometry x="240" y="620" width="190" height="190" as="geometry" />
        </mxCell>
        <mxCell id="3glaqCfnxtMFjsHShPuj-15" value="" style="whiteSpace=wrap;html=1;aspect=fixed;" vertex="1" parent="1">
          <mxGeometry x="455" y="620" width="190" height="190" as="geometry" />
        </mxCell>
        <mxCell id="3glaqCfnxtMFjsHShPuj-16" value="" style="whiteSpace=wrap;html=1;aspect=fixed;" vertex="1" parent="1">
          <mxGeometry x="670" y="620" width="190" height="190" as="geometry" />
        </mxCell>
        <mxCell id="3glaqCfnxtMFjsHShPuj-17" value="" style="whiteSpace=wrap;html=1;aspect=fixed;" vertex="1" parent="1">
          <mxGeometry x="240" y="840" width="190" height="190" as="geometry" />
        </mxCell>
        <mxCell id="3glaqCfnxtMFjsHShPuj-18" value="" style="whiteSpace=wrap;html=1;aspect=fixed;" vertex="1" parent="1">
          <mxGeometry x="455" y="840" width="190" height="190" as="geometry" />
        </mxCell>
        <mxCell id="3glaqCfnxtMFjsHShPuj-19" value="" style="whiteSpace=wrap;html=1;aspect=fixed;" vertex="1" parent="1">
          <mxGeometry x="670" y="840" width="190" height="190" as="geometry" />
        </mxCell>
        <mxCell id="3glaqCfnxtMFjsHShPuj-20" value="" style="whiteSpace=wrap;html=1;aspect=fixed;" vertex="1" parent="1">
          <mxGeometry x="240" y="1060" width="190" height="190" as="geometry" />
        </mxCell>
        <mxCell id="3glaqCfnxtMFjsHShPuj-21" value="" style="whiteSpace=wrap;html=1;aspect=fixed;" vertex="1" parent="1">
          <mxGeometry x="455" y="1060" width="190" height="190" as="geometry" />
        </mxCell>
        <mxCell id="3glaqCfnxtMFjsHShPuj-22" value="" style="whiteSpace=wrap;html=1;aspect=fixed;" vertex="1" parent="1">
          <mxGeometry x="670" y="1060" width="190" height="190" as="geometry" />
        </mxCell>
        <mxCell id="3glaqCfnxtMFjsHShPuj-23" value="&lt;font style=&quot;font-size: 36px&quot;&gt;Jeu des paires&lt;/font&gt;" style="text;html=1;strokeColor=none;fillColor=none;align=center;verticalAlign=middle;whiteSpace=wrap;rounded=0;" vertex="1" parent="1">
          <mxGeometry x="385" y="245" width="330" height="30" as="geometry" />
        </mxCell>
        <mxCell id="3glaqCfnxtMFjsHShPuj-24" value="&lt;span style=&quot;font-size: 18px&quot;&gt;Retrouve les paires correspondantes !&lt;/span&gt;" style="text;html=1;strokeColor=none;fillColor=none;align=center;verticalAlign=middle;whiteSpace=wrap;rounded=0;fontSize=36;" vertex="1" parent="1">
          <mxGeometry x="360" y="310" width="380" height="30" as="geometry" />
        </mxCell>
        <mxCell id="3glaqCfnxtMFjsHShPuj-26" value="Copyright: Avady" style="text;html=1;strokeColor=none;fillColor=none;align=center;verticalAlign=middle;whiteSpace=wrap;rounded=0;fontSize=18;" vertex="1" parent="1">
          <mxGeometry x="160" y="1310" width="750" height="30" as="geometry" />
        </mxCell>
      </root>
    </mxGraphModel>
  </diagram>
</mxfile>
